<svg width="56" height="56" viewBox="0 0 56 56" fill="none" xmlns="http://www.w3.org/2000/svg">
<g clip-path="url(#clip0)">
<path d="M31.625 34.8438H20.375C19.5991 34.8438 18.9688 35.4741 18.9688 36.25V40.4688H33.0312V36.25C33.0312 35.4741 32.4009 34.8438 31.625 34.8438Z" fill="#2F9AAA"/>
<path d="M10.4375 19.2812V29.459C8.80053 30.04 7.625 31.6041 7.625 33.4375V49H44.375V33.4375C44.375 31.6041 43.1995 30.04 41.5625 29.459V19.2812C41.5625 13.7886 37.9312 9.14959 33.0312 7.40247V5.21875C33.0312 2.89244 31.1388 1 28.8125 1H23.1875C20.8612 1 18.9688 2.89244 18.9688 5.21875V7.40247C14.0688 9.14959 10.4375 13.7886 10.4375 19.2812ZM21.7812 5.21875C21.7812 4.44287 22.4116 3.8125 23.1875 3.8125H28.8125C29.5884 3.8125 30.2188 4.44287 30.2188 5.21875V6.76713C29.7509 6.71444 29.294 6.625 28.8125 6.625H23.1875C22.706 6.625 22.2491 6.71444 21.7812 6.76713V5.21875ZM18.9688 15.0625H33.0312V17.875H30.2188V20.6875H27.4062V17.875H18.9688V15.0625ZM16.1562 36.25C16.1562 33.9237 18.0487 32.0312 20.375 32.0312H31.625C33.9513 32.0312 35.8438 33.9237 35.8438 36.25V43.2812H16.1562V36.25Z" fill="#2F9AAA"/>
<path d="M40.8301 9.4375C42.4935 11.4485 43.6448 13.8903 44.1215 16.5632L46.3478 15.7956L44.3757 23.3963V27.8138C44.8689 28.185 45.2912 28.6302 45.6683 29.1112L50.0007 13.247L46.1912 9.4375H40.8301Z" fill="#2F9AAA"/>
<path d="M7.625 27.8139V23.3964L5.65297 15.7956L7.87925 16.5632C8.35597 13.8903 9.50731 11.4485 11.1706 9.4375H5.80953L2 13.247L6.33238 29.1113C6.70953 28.6303 7.13178 28.185 7.625 27.8139Z" fill="#2F9AAA"/>
</g>
<line x1="1.06066" y1="1.93934" x2="54.0607" y2="54.9393" stroke="#EF855B" stroke-width="3"/>
<defs>
<clipPath id="clip0">
<rect width="48" height="48" fill="white" transform="translate(2 1)"/>
</clipPath>
</defs>
</svg>
