<svg width="51" height="54" viewBox="0 0 51 54" fill="none" xmlns="http://www.w3.org/2000/svg">
<g clip-path="url(#clip0)">
<path d="M40.0635 2.63657C37.0897 5.5917 32.2572 10.4859 30.6728 11.1834C29.0861 11.8823 18.3341 9.50419 14.5149 9.0641C12.198 8.79634 11.3913 12.3596 13.7308 12.6283C16.8747 12.9902 20.0181 13.3514 23.1612 13.7138C23.1527 13.8136 23.1492 13.875 23.1492 13.875L18.7855 26.4707L14.4725 39.1523C14.1705 40.1946 14.6875 41.2636 15.7606 41.5744C16.8328 41.8857 17.9479 41.2932 18.2497 40.2489L23.3479 27.1758C23.3479 27.1758 23.6051 26.5232 24.2898 26.7138C24.975 26.9052 24.7666 27.5519 24.7666 27.5519L19.67 40.624C19.3667 41.6659 19.991 42.7639 21.0633 43.0752C22.1361 43.3873 23.2517 42.7955 23.5535 41.7513C23.5535 41.7513 31.7385 19.7305 32.8033 15.5469C33.7119 14.652 39.4656 8.36996 42.7755 5.07924C44.4452 3.42109 41.7284 0.982679 40.0635 2.63657Z" fill="#2F9AAA"/>
<path d="M30.3554 9.23281C31.9548 8.20984 32.4221 6.08397 31.3991 4.48456C30.3762 2.88514 28.2503 2.41785 26.6509 3.44083C25.0515 4.46381 24.5842 6.58967 25.6071 8.18908C26.6301 9.7885 28.756 10.2558 30.3554 9.23281Z" fill="#2F9AAA"/>
<path d="M0 54H18.0263L24 46H0V54Z" fill="#2F9AAA"/>
<path d="M13.0181 36.4816C13.4598 36.4816 13.4598 35.7977 13.0181 35.7977C12.5773 35.795 12.5773 36.4816 13.0181 36.4816Z" fill="#2F9AAA"/>
<path d="M15.1672 38.9711C15.6071 38.9711 15.6071 38.2864 15.1672 38.2864C14.7255 38.2864 14.7255 38.9711 15.1672 38.9711Z" fill="#2F9AAA"/>
<path d="M16.706 39.0256C17.1477 39.0256 17.1477 38.3418 16.706 38.3418C16.2634 38.3418 16.2634 39.0256 16.706 39.0256Z" fill="#2F9AAA"/>
<path d="M17.8843 43.3236C18.3251 43.3236 18.3251 42.6379 17.8843 42.6379C17.4435 42.6379 17.4435 43.3236 17.8843 43.3236Z" fill="#2F9AAA"/>
<path d="M12.3342 41.6501C12.7759 41.6501 12.7759 40.9653 12.3342 40.9653C11.8925 40.9653 11.8925 41.6501 12.3342 41.6501Z" fill="#2F9AAA"/>
</g>
<defs>
<clipPath id="clip0">
<rect width="51" height="54" fill="white"/>
</clipPath>
</defs>
</svg>
