<svg width="50" height="50" viewBox="0 0 50 50" fill="none" xmlns="http://www.w3.org/2000/svg">
<g clip-path="url(#clip0)">
<path d="M48.6639 40.6614L1.30272 42.8391L0.977539 45.1163C0.977539 47.2734 2.72648 49.0224 4.9383 49.0224H33.9468C38.8704 49.0224 43.666 47.8437 47.9891 45.5909C48.6307 45.2569 49.0223 44.5743 49.0223 43.8507V42.2961C49.0223 41.7161 48.8953 41.1614 48.6639 40.6614Z" fill="white"/>
<path d="M46.1132 38.5209C43.6124 37.8618 40.5666 36.9614 36.764 35.4508L21.6797 27.539L16.9925 33.7887C16.2552 34.7721 15.097 35.3512 13.8676 35.3512H10.7427C8.58561 35.3512 6.83667 33.6022 6.83667 31.4451H2.93059L1.30273 42.8391L1.35547 42.8469C1.99118 44.1896 3.35733 45.1163 4.93831 45.1163H33.9478C39.1858 45.1163 44.3057 43.5656 48.6639 40.6615C48.1893 39.6273 47.2704 38.8256 46.1132 38.5209Z" fill="#2F9AAA"/>
<path d="M48.6971 16.2777L1.33592 14.1001C1.10449 14.6001 0.977539 15.1547 0.977539 15.7348V17.2894C0.977539 18.013 1.36912 18.6956 2.0107 19.0296C6.33374 21.2824 11.1294 22.461 16.0521 22.461H45.0615C47.2733 22.461 49.0223 20.7121 49.0223 18.555L48.6971 16.2777Z" fill="white"/>
<path d="M47.0692 4.8838H43.1632C43.1632 7.04093 41.4142 8.78987 39.2571 8.78987H36.1322C34.9028 8.78987 33.7446 8.21079 33.0074 7.22744L28.3201 0.977722L13.2358 8.88947C9.43323 10.4001 6.38747 11.3005 3.8866 11.9597C2.72943 12.2643 1.81053 13.066 1.33594 14.1002C5.69414 17.0043 10.814 18.5551 16.0521 18.5551H45.0615C46.6425 18.5551 48.0086 17.6283 48.6444 16.2856L48.6971 16.2778L47.0692 4.8838Z" fill="#2F9AAA"/>
<path d="M37.0078 35.0288C33.3188 41.4183 34.2229 39.8522 34.0782 40.1028C33.5392 41.0373 32.3449 41.3567 31.4104 40.8176C30.4758 40.2786 30.1565 39.0843 30.6956 38.1498C30.9807 37.6559 33.2942 33.6489 33.6251 33.0758L37.0078 35.0288Z" fill="white"/>
<path d="M26.337 37.8882C25.798 38.8227 24.6027 39.142 23.6692 38.603C22.7346 38.0639 22.4153 36.8697 22.9543 35.9351C23.086 35.7071 22.1435 37.3395 26.8604 29.1698L30.2431 31.1228C25.6226 39.1256 26.4645 37.6673 26.337 37.8882Z" fill="white"/>
<path d="M27.0465 9.37378C27.5856 10.3083 27.2663 11.5026 26.3317 12.0416C25.3982 12.5807 24.2029 12.2613 23.6639 11.3268C23.5366 11.1065 24.3783 12.5643 19.7578 4.5615L23.1405 2.60846C27.8164 10.7071 26.9277 9.16793 27.0465 9.37378Z" fill="white"/>
<path d="M19.3054 11.5885C19.8444 12.523 19.5241 13.7173 18.5906 14.2564C17.656 14.7954 16.4618 14.4761 15.9227 13.5415C15.7781 13.291 16.6822 14.857 12.9932 8.46756L16.3758 6.51453C16.7068 7.08764 19.0202 11.0945 19.3054 11.5885Z" fill="white"/>
<path d="M46.3622 37.5766C44.3064 37.0349 41.5295 36.2437 37.9712 34.8738C37.926 34.594 37.7602 34.336 37.4956 34.1832L34.113 32.2302C33.6472 31.9613 33.0491 32.1198 32.7789 32.5877L32.7432 32.6495C32.152 32.3729 31.5629 32.0885 30.9797 31.7982L31.0877 31.6111C31.3573 31.144 31.1973 30.5469 30.7302 30.2772L27.3475 28.3241C26.8807 28.0547 26.2831 28.2146 26.0135 28.6817L25.8316 28.9967C24.6097 28.2728 23.3988 27.5119 22.2217 26.7266C21.7906 26.4391 21.2097 26.5384 20.8986 26.9531L16.2112 33.203C15.6612 33.9367 14.785 34.3746 13.8677 34.3746H10.7428C9.12746 34.3746 7.81326 33.0604 7.81326 31.4451C7.81326 30.9057 7.37608 30.4686 6.83674 30.4686H2.93067C2.44466 30.4686 2.03266 30.8259 1.96401 31.3069C-0.112845 45.8693 0.00111444 44.9852 0.00111444 45.1163C0.00111444 47.8086 2.21596 49.9989 4.93839 49.9989H33.9469C38.9821 49.9989 43.9939 48.7742 48.4401 46.4571C49.4015 45.9566 49.9989 44.9579 49.9989 43.8508V42.2962C49.9989 40.1271 48.5539 38.1538 46.3622 37.5766ZM33.9821 34.4099L35.6736 35.3865L33.2318 39.615C32.964 40.0795 32.3684 40.2434 31.8977 39.9718C31.4304 39.7022 31.271 39.1058 31.5407 38.6382L33.9821 34.4099ZM28.9081 31.4803C28.3953 32.3685 25.973 36.5638 25.4901 37.4003C25.2209 37.8671 24.6241 38.0274 24.156 37.7571C23.69 37.4883 23.5298 36.8899 23.799 36.4235C24.3283 35.5067 26.485 31.7716 27.217 30.5039L28.9081 31.4803ZM3.7776 32.4216H5.95837C6.41206 34.6475 8.38502 36.3277 10.7429 36.3277H13.8678C15.3967 36.3277 16.857 35.5975 17.7738 34.3746L21.9099 28.8599C22.8767 29.4891 23.8625 30.1003 24.8552 30.6882L22.1074 35.4472C21.3001 36.8469 21.7814 38.642 23.1799 39.4487C24.5805 40.2575 26.3716 39.7808 27.1817 38.3766L30.0016 33.4927C30.584 33.7838 31.1725 34.0692 31.7633 34.3471L29.8493 37.6621C29.0403 39.0645 29.5189 40.8545 30.9221 41.6638C32.3151 42.4672 34.113 41.9967 34.9235 40.5913L37.1901 36.6662C40.8746 38.089 43.744 38.9064 45.8648 39.4653C46.437 39.616 46.9393 39.9306 47.3185 40.3633C43.2919 42.8368 38.6896 44.1398 33.9479 44.1398H4.93849C3.8527 44.1398 2.84669 43.539 2.32435 42.5951L3.7776 32.4216ZM48.0458 43.8508C48.0458 44.2213 47.8466 44.5642 47.5378 44.7249C43.3689 46.8976 38.6691 48.0459 33.9469 48.0459H4.93849C3.287 48.0459 1.98872 46.7927 1.95493 45.181L1.96743 45.0934C2.81036 45.7279 3.85016 46.093 4.93849 46.093H33.9479C38.9362 46.093 43.7804 44.7527 48.0436 42.2066C48.0445 42.2365 48.0459 42.2663 48.0459 42.2962V43.8508H48.0458Z" fill="#2F9AAA"/>
<path d="M30.8594 23.4377C31.3987 23.4377 31.8359 23.0005 31.8359 22.4612C31.8359 21.9218 31.3987 21.4846 30.8594 21.4846C30.32 21.4846 29.8828 21.9218 29.8828 22.4612C29.8828 23.0005 30.32 23.4377 30.8594 23.4377Z" fill="#2F9AAA"/>
<path d="M48.0368 4.74644C47.9681 4.2654 47.5561 3.9081 47.0702 3.9081H43.1641C42.6247 3.9081 42.1876 4.34528 42.1876 4.88461C42.1876 6.49997 40.8734 7.81417 39.258 7.81417H36.1331C35.2157 7.81417 34.3397 7.3762 33.7895 6.64235L29.1022 0.392628C28.7912 -0.022099 28.2103 -0.121606 27.7791 0.166174C26.602 0.951392 25.3911 1.7123 24.1692 2.43629L23.9873 2.12126C23.7174 1.65351 23.1193 1.49434 22.6533 1.76366L19.2706 3.7167C18.8036 3.98631 18.6436 4.58355 18.9131 5.05062L19.0212 5.23782C18.4401 5.52726 17.851 5.81152 17.2577 6.08905L17.222 6.02724C16.952 5.55958 16.3541 5.40061 15.888 5.66973L12.5053 7.62277C12.2407 7.7755 12.0749 8.03349 12.0297 8.31337C8.4713 9.68323 5.69437 10.4744 3.6389 11.0162C1.46478 11.5886 0.00195312 13.5478 0.00195312 15.7357V17.2903C0.00195312 18.3975 0.59929 19.3962 1.56028 19.8964C6.00686 22.2137 11.0184 23.4385 16.053 23.4385H26.4657C27.005 23.4385 27.4422 23.0013 27.4422 22.4619C27.4422 21.9226 27.005 21.4854 26.4657 21.4854H16.053C11.3313 21.4854 6.63193 20.337 2.46249 18.1643C2.1542 18.0038 1.95499 17.6608 1.95499 17.2903C1.95499 17.2903 1.95646 15.6759 1.95733 15.646C6.22052 18.1921 11.0647 19.5324 16.053 19.5324H45.0624C46.1508 19.5324 47.1906 19.1674 48.0335 18.5328L48.046 18.6205C48.012 20.2322 46.7137 21.4854 45.0624 21.4854H35.2543C34.7149 21.4854 34.2778 21.9226 34.2778 22.4619C34.2778 23.0013 34.7149 23.4385 35.2543 23.4385H45.0623C47.7848 23.4385 49.9996 21.2481 49.9996 18.5559C49.9996 18.4246 50.1148 19.3173 48.0368 4.74644ZM22.7838 3.94335C23.5178 5.21448 25.6717 8.94468 26.2017 9.86251C26.4709 10.3293 26.3108 10.9277 25.8444 11.1967C25.3776 11.4664 24.7804 11.3072 24.5105 10.8393C24.2315 10.3562 21.5659 5.73956 21.0926 4.91977L22.7838 3.94335ZM16.0187 7.84932L18.4599 12.0773C18.729 12.5438 18.5688 13.1423 18.103 13.4113C17.6362 13.6805 17.0378 13.5205 16.7687 13.0541L14.3272 8.82594L16.0187 7.84932ZM45.0623 17.5793H16.0529C11.3111 17.5793 6.70868 16.2762 2.68201 13.8026C3.061 13.3704 3.56351 13.0554 4.13624 12.9047C6.25685 12.3457 9.12625 11.5284 12.8108 10.1056L15.0771 14.0303C15.8867 15.4339 17.6766 15.9117 19.079 15.1028C20.4773 14.2954 20.9584 12.5004 20.1512 11.101L18.2378 7.78653C18.8305 7.50774 19.4191 7.2225 19.9995 6.93237L22.819 11.8156C23.6274 13.217 25.4172 13.6988 26.8207 12.8883C28.2195 12.0814 28.7008 10.2862 27.8932 8.88629L25.1456 4.12762C26.1383 3.53985 27.124 2.92865 28.0909 2.29938L32.2269 7.81397C33.1438 9.03697 34.6041 9.76711 36.133 9.76711H39.2579C41.6158 9.76711 43.5887 8.08691 44.0425 5.86103H46.2231L47.6765 16.0345C47.1541 16.9784 46.1481 17.5793 45.0623 17.5793Z" fill="#2F9AAA"/>
</g>
<defs>
<clipPath id="clip0">
<rect width="50" height="50" fill="white"/>
</clipPath>
</defs>
</svg>
