<svg width="46" height="46" viewBox="0 0 46 46" fill="none" xmlns="http://www.w3.org/2000/svg">
<g clip-path="url(#clip0)">
<path d="M12.4355 21.4596L18.6451 15.2501L30.7447 27.3498L24.5352 33.5593L12.4355 21.4596Z" fill="#2F9AAA"/>
<path d="M10.5306 23.3679L9.21548 24.683C8.14855 25.75 6.91844 26.6234 5.55932 27.279C4.1455 27.961 2.86591 28.8695 1.75598 29.9795L0.965228 30.7703C-0.321743 32.0572 -0.321743 34.1512 0.965228 35.4381L10.5621 45.0349C11.2055 45.6784 12.0508 46.0001 12.8959 46.0001C13.7411 46.0001 14.5864 45.6784 15.2298 45.0349L16.0206 44.2441C17.1305 43.1342 18.0391 41.8546 18.7211 40.4407C19.3767 39.0817 20.2501 37.8516 21.317 36.7846L22.6322 35.4694L10.5306 23.3679Z" fill="#2F9AAA"/>
<path d="M32.4369 3.80498C30.0518 3.38873 27.5812 4.15474 25.8506 5.88549C25.2547 6.48138 24.7669 7.16832 24.4009 7.92732C23.4303 9.93928 22.1376 11.7605 20.5586 13.3406L32.6602 25.4422C34.2401 23.8632 36.0614 22.5705 38.0735 21.5999C38.8326 21.2338 39.5195 20.746 40.1152 20.1502C41.8459 18.4196 42.612 15.949 42.1957 13.564L32.4369 3.80498Z" fill="#2F9AAA"/>
<path d="M36.1592 3.7196L39.874 0.00480825L45.9948 6.1256L42.28 9.8404L36.1592 3.7196Z" fill="#2F9AAA"/>
</g>
<defs>
<clipPath id="clip0">
<rect width="46" height="46" fill="white"/>
</clipPath>
</defs>
</svg>
